<svg width="16" height="16" viewBox="0 0 16 16" fill="none" xmlns="http://www.w3.org/2000/svg">
<path d="M12.5954 3.12857C12.3298 2.86232 12.0144 2.651 11.6671 2.50669C11.3198 2.36239 10.9475 2.28792 10.5714 2.28755C10.1953 2.28718 9.82285 2.36091 9.47527 2.50453C9.1277 2.64815 8.81183 2.85884 8.5457 3.12457L2.11828 9.54743C2.06518 9.60048 2.00216 9.64256 1.93281 9.67126C1.86346 9.69996 1.78913 9.71472 1.71407 9.71469C1.63902 9.71466 1.5647 9.69985 1.49537 9.67111C1.42604 9.64236 1.36304 9.60024 1.30999 9.54714C1.25694 9.49405 1.21486 9.43103 1.18616 9.36168C1.15746 9.29233 1.1427 9.218 1.14273 9.14294C1.14276 9.06789 1.15757 8.99357 1.18631 8.92424C1.21506 8.85491 1.25718 8.79191 1.31028 8.73886L7.73828 2.316C8.1095 1.94024 8.55139 1.64162 9.0385 1.43733C9.52562 1.23304 10.0483 1.12713 10.5765 1.12569C11.1047 1.12424 11.628 1.2273 12.1162 1.42892C12.6045 1.63053 13.048 1.92674 13.4213 2.30047C13.7945 2.67419 14.0902 3.11807 14.2912 3.60653C14.4923 4.095 14.5947 4.6184 14.5926 5.14661C14.5905 5.67482 14.484 6.1974 14.2791 6.68427C14.0742 7.17113 13.7751 7.61266 13.3988 7.98343L7.21313 14.1611C6.76448 14.6048 6.15843 14.8528 5.52745 14.851C4.89648 14.8491 4.29189 14.5976 3.84583 14.1513C3.39977 13.705 3.14853 13.1003 3.147 12.4693C3.14548 11.8384 3.39381 11.2324 3.8377 10.784L10.0246 4.596C10.1323 4.49191 10.2767 4.43431 10.4265 4.43562C10.5763 4.43692 10.7197 4.49702 10.8256 4.60296C10.9315 4.70891 10.9916 4.85223 10.9929 5.00206C10.9942 5.15189 10.9367 5.29623 10.8326 5.404L4.6457 11.5926C4.4162 11.8268 4.28838 12.1421 4.29004 12.47C4.29169 12.7979 4.42269 13.1119 4.65455 13.3437C4.88641 13.5756 5.20041 13.7066 5.52831 13.7082C5.85621 13.7099 6.17151 13.5821 6.4057 13.3526L12.5914 7.17486C13.1281 6.6386 13.43 5.91123 13.4307 5.15254C13.4315 4.39386 13.131 3.66589 12.5954 3.12857Z" fill="#CBD5E1"/>
</svg>
