<svg width="46" height="44" viewBox="0 0 46 44" fill="none" xmlns="http://www.w3.org/2000/svg">
<path d="M45.1353 41.5938C41.6769 35.6175 36.2475 31.4241 29.9387 29.6456C33.0059 28.0865 35.4586 25.5398 36.9014 22.4161C38.3441 19.2925 38.6927 15.774 37.8911 12.4279C37.0895 9.08189 35.1843 6.10335 32.4827 3.97257C29.7812 1.8418 26.4407 0.682983 23 0.682983C19.5593 0.682983 16.2188 1.8418 13.5173 3.97257C10.8157 6.10335 8.91051 9.08189 8.10888 12.4279C7.30725 15.774 7.65591 19.2925 9.09863 22.4161C10.5413 25.5398 12.9941 28.0865 16.0612 29.6456C9.75249 31.4219 4.32312 35.6153 0.864681 41.5938C0.769717 41.7431 0.705952 41.9102 0.677222 42.0849C0.648493 42.2595 0.655393 42.4382 0.697507 42.6101C0.739621 42.7821 0.816078 42.9437 0.92228 43.0853C1.02848 43.2269 1.16223 43.3456 1.31549 43.4342C1.46874 43.5228 1.63833 43.5795 1.81406 43.6008C1.98978 43.6221 2.168 43.6077 2.33801 43.5584C2.50802 43.5091 2.66629 43.4259 2.80331 43.3138C2.94032 43.2017 3.05325 43.0631 3.13531 42.9063C7.33749 35.6459 14.7619 31.3125 23 31.3125C31.2381 31.3125 38.6625 35.6459 42.8647 42.9063C42.9467 43.0631 43.0597 43.2017 43.1967 43.3138C43.3337 43.4259 43.492 43.5091 43.662 43.5584C43.832 43.6077 44.0102 43.6221 44.1859 43.6008C44.3617 43.5795 44.5312 43.5228 44.6845 43.4342C44.8378 43.3456 44.9715 43.2269 45.0777 43.0853C45.1839 42.9437 45.2604 42.7821 45.3025 42.6101C45.3446 42.4382 45.3515 42.2595 45.3228 42.0849C45.294 41.9102 45.2303 41.7431 45.1353 41.5938ZM10.3125 16C10.3125 13.4907 11.0566 11.0377 12.4507 8.95121C13.8448 6.86476 15.8264 5.23857 18.1447 4.27828C20.463 3.31799 23.0141 3.06674 25.4752 3.55629C27.9363 4.04584 30.197 5.25421 31.9714 7.02858C33.7458 8.80296 34.9542 11.0637 35.4437 13.5248C35.9333 15.9859 35.682 18.537 34.7217 20.8553C33.7614 23.1736 32.1352 25.1552 30.0488 26.5493C27.9623 27.9434 25.5093 28.6875 23 28.6875C19.6363 28.6835 16.4115 27.3454 14.0331 24.9669C11.6546 22.5885 10.3165 19.3637 10.3125 16Z" fill="#64748B"/>
</svg>
